<!--
Florida State Road 24 Shield
Wikimedia Commons, Public Domain
https://commons.wikimedia.org/wiki/File:Florida_24.svg
-->
<svg xmlns="http://www.w3.org/2000/svg" viewBox="0 0 600 600" width="600" height="600">
  <rect fill="#fff" x=".5" y=".5" width="600" height="600" />
  <path d="m50.5 13c-20.775 0-37.5 16.725-37.5 37.5v500c0 20.775 16.725 37.5 37.5 37.5h500c20.775 0 37.5-16.725 37.5-37.5v-500c0-20.775-16.72-37.5-37.5-37.5zm0 15.625h500c12.119 0 21.875 9.7562 21.875 21.875v500c0 12.119-9.7562 21.875-21.875 21.875h-500c-12.119 0-21.875-9.7562-21.875-21.875v-500c0-12.119 9.7562-21.875 21.875-21.875z" />
  <path d="m448.87 548.44c-7.9441-4.568-15.217-8.7371-16.163-9.2647-1.7011-0.94923-1.6579-1.0708 4.1311-11.619 3.2175-5.863 5.9889-10.801 6.1587-10.973 0.1698-0.17227 6.4534 3.1354 13.964 7.3502l13.655 7.6634 10.012-0.55487 10.012-0.55487 19.478-19.198 19.478-19.198 1.1081-22.079 1.108-22.079-2.503-15.464-2.5031-15.464-12.808-25.065-12.809-25.065-8.0465-44.571-8.0468-44.571 5.6779-29.347 5.6778-29.347-21.39-72.813c-11.765-40.047-21.566-72.991-21.78-73.208-0.2142-0.21742-5.2468-0.58754-11.183-0.82271l-10.794-0.42734-3.48 7.2366-3.48 7.2367-107.68-0.20088-107.68-0.20089-3.3583-8.3188-3.3584-8.3186-64.178-0.20272-64.178-0.20271 0.45989 2.3335c0.25292 1.2833 1.575 8.7194 2.938 16.525l2.4781 14.191 11.799 0.91494c16.132 1.2509 16.398 1.2314 21.419-1.5665l4.434-2.4711 22.251 4.8721c12.238 2.6796 23.052 5.2151 24.032 5.6344 0.97954 0.41932 15.38 11.347 32.001 24.283l30.22 23.521 32.943-8.3481 32.943-8.3481 16.97 9.3945c9.3336 5.167 17.129 9.5555 17.323 9.7522 0.51516 0.52279-10.963 21.822-11.76 21.822-0.37084 0-6.3646-3.1866-13.319-7.0814l-12.645-7.0814-33.916 8.6115c-18.654 4.7362-34.283 8.3915-34.731 8.1227-0.44795-0.26866-15.57-11.943-33.605-25.944l-32.791-25.455-15.252-3.3152c-8.3884-1.8234-15.81-3.3152-16.492-3.3152-0.68234 0-2.778 0.86573-4.6571 1.9239l-3.4165 1.9239-27.387-2.0781-27.387-2.0782-6.8442-38.468c-3.7643-21.158-7.0306-39.449-7.2584-40.647l-0.41425-2.1787h87.454 87.454l3.2947 8.3188 3.2947 8.3188h91.538 91.538l3.2771-7.1575 3.2771-7.1574 28.261 0.53184c15.544 0.2925 28.315 0.57201 28.382 0.62122 0.066 0.0487 11.359 38.337 25.095 85.085l24.974 84.996-5.8075 30.096-5.8072 30.096 7.1362 39.796 7.1362 39.796 12.895 25.348 12.895 25.348 3.1064 18.622 3.1063 18.622-1.3784 28.777-1.3784 28.777-26.09 25.889-26.09 25.889-5.198 0.4864c-2.8587 0.2675-11.522 0.6922-19.251 0.9438l-14.053 0.4575z" />
  <path d="m63.791 476q0.74627-22.015 5.597-40.299t15.299-36.194q7.8358-14.179 19.403-26.119 11.567-12.313 24.627-22.015 3.3582-1.8657 5.9702-3.7313 2.6119-2.2388 5.2239-4.1045l13.433-7.0896 12.313-7.0896 11.94-6.7164q7.4627-4.8508 11.94-11.94 4.8508-7.4627 4.8508-15.299 0-7.0896-3.7314-13.06-3.7313-6.3433-10.075-10.821-5.9702-4.4776-14.179-7.0896-8.209-2.6119-17.537-2.6119-19.03 0-30.97 8.9552-11.567 8.9552-14.552 26.119l-39.552-8.5821q6.3433-31.343 29.104-48.881 22.761-17.91 55.97-17.91 17.91 0 33.209 5.9702 15.672 5.9702 26.866 16.045 11.567 10.075 18.284 23.881 6.7164 13.433 6.7164 28.731 0 14.552-6.7164 28.731-6.3433 13.806-18.657 24.627-2.9851 2.2388-5.597 4.1045-2.2388 1.8657-4.8508 2.9851l-12.313 7.8358-13.433 7.0896-12.313 7.0896q-8.9552 5.2239-16.045 11.194-6.7164 5.597-12.687 12.313-5.597 6.7164-10.821 14.925-4.8508 8.209-9.3284 18.657h122.76v40.299h-170.15z" />
  <path d="m426.81 413.69v62.313h-39.179v-62.313h-123.88v-23.507l123.88-164.18h39.179v151.87h23.881v35.821h-23.881zm-39.179-129.85-71.269 94.03h71.269v-94.03z" />
</svg>
